<?xml version="1.0" encoding="UTF-8" standalone="no"?>
<!-- Created with Inkscape (http://www.inkscape.org/) -->

<svg
   xmlns:dc="http://purl.org/dc/elements/1.1/"
   xmlns:cc="http://creativecommons.org/ns#"
   xmlns:rdf="http://www.w3.org/1999/02/22-rdf-syntax-ns#"
   xmlns:svg="http://www.w3.org/2000/svg"
   xmlns="http://www.w3.org/2000/svg"
   xmlns:xlink="http://www.w3.org/1999/xlink"
   xmlns:sodipodi="http://sodipodi.sourceforge.net/DTD/sodipodi-0.dtd"
   xmlns:inkscape="http://www.inkscape.org/namespaces/inkscape"
   width="32"
   height="32"
   id="svg2"
   version="1.1"
   inkscape:version="0.48.4 r9939"
   sodipodi:docname="arrow.svg">
  <defs
     id="defs4">
    <linearGradient
       inkscape:collect="always"
       id="linearGradient2986">
      <stop
         style="stop-color:#666666;stop-opacity:1;"
         offset="0"
         id="stop2988" />
      <stop
         style="stop-color:#666666;stop-opacity:0;"
         offset="1"
         id="stop2990" />
    </linearGradient>
    <inkscape:perspective
       sodipodi:type="inkscape:persp3d"
       inkscape:vp_x="0 : 8 : 1"
       inkscape:vp_y="0 : 1000 : 0"
       inkscape:vp_z="16 : 8 : 1"
       inkscape:persp3d-origin="8 : 5.3333333 : 1"
       id="perspective3020" />
    <linearGradient
       inkscape:collect="always"
       xlink:href="#linearGradient2986"
       id="linearGradient2992"
       x1="15.332031"
       y1="16.667969"
       x2="27.734375"
       y2="16.960938"
       gradientUnits="userSpaceOnUse" />
  </defs>
  <sodipodi:namedview
     id="base"
     pagecolor="#ffffff"
     bordercolor="#666666"
     borderopacity="1.0"
     inkscape:pageopacity="0.0"
     inkscape:pageshadow="2"
     inkscape:zoom="7.2407735"
     inkscape:cx="-6.7389237"
     inkscape:cy="10.927475"
     inkscape:document-units="px"
     inkscape:current-layer="layer1"
     showgrid="false"
     inkscape:window-width="1280"
     inkscape:window-height="753"
     inkscape:window-x="-2"
     inkscape:window-y="-3"
     inkscape:window-maximized="1" />
  <metadata
     id="metadata7">
    <rdf:RDF>
      <cc:Work
         rdf:about="">
        <dc:format>image/svg+xml</dc:format>
        <dc:type
           rdf:resource="http://purl.org/dc/dcmitype/StillImage" />
        <dc:title />
      </cc:Work>
    </rdf:RDF>
  </metadata>
  <g
     inkscape:label="Layer 1"
     inkscape:groupmode="layer"
     id="layer1"
     transform="translate(0,-1020.3622)">
    <g
       id="arroww"
       inkscape:label="#g2993">
      <path
         inkscape:label="arrow"
         sodipodi:nodetypes="cccccccc"
         inkscape:connector-curvature="0"
         id="arrow"
         d="m 13.811957,1050.863 0.247674,-19.886 -7.5027654,4.6427 9.0686434,-13.4834 9.401305,13.0636 -7.110007,-4.2052 -0.187579,19.7958 z"
         style="fill:#ffffff;stroke:#000000;stroke-width:0.21010427;stroke-linecap:butt;stroke-linejoin:miter;stroke-miterlimit:4;stroke-opacity:1;stroke-dasharray:none" />
      <path
         transform="translate(0,1020.3622)"
         inkscape:connector-curvature="0"
         id="path2984"
         d="m 13.97806,29.380954 c -7.05e-4,-0.546916 0.0498,-5.027531 0.112236,-9.956922 0.06244,-4.929392 0.09852,-8.977529 0.08019,-8.99586 -0.01833,-0.01833 -1.594946,0.932409 -3.50359,2.112753 -1.9086439,1.180345 -3.4809319,2.135412 -3.4939736,2.12237 -0.013042,-0.01304 1.878187,-2.854861 4.2027306,-6.3151544 3.220803,-4.7944576 4.245826,-6.2725706 4.307908,-6.2121291 0.140614,0.1368996 8.720301,12.0856365 8.695671,12.1102665 -0.01287,0.01287 -1.49581,-0.846759 -3.295416,-1.910294 l -3.272012,-1.9337 -0.01849,0.360465 c -0.01017,0.198255 -0.06044,4.657514 -0.111704,9.909466 -0.05127,5.25195 -0.105519,9.561307 -0.12056,9.576348 -0.01504,0.01504 -0.827078,0.04972 -1.804527,0.07706 l -1.777181,0.04972 -0.0013,-0.994391 0,0 z"
         style="fill:url(#linearGradient2992);stroke:#000000;stroke-width:0.00690534000000000;stroke-miterlimit:4;stroke-dasharray:none;fill-opacity:1" />
    </g>
  </g>
</svg>
